<svg width="410" height="404" xmlns="http://www.w3.org/2000/svg" fill="none">

 <g>
  <title>Layer 1</title>
  <path id="svg_17" d="m494.34662,202.76883l0.745,-0.745l0.745,0.745l-0.745,0.745l-0.745,-0.745z" stroke="null" fill="#bf00bf"/>
  <g stroke="null" id="svg_22">
   <path stroke="null" id="svg_11" d="m148.34186,252.12011l50.13261,-50.13233l-50.13261,-50.13269l28.65332,-28.65023l78.79201,78.78293l-78.79201,78.80737" fill="#bf00bf"/>
   <g stroke="null" id="svg_15">
    <path stroke="null" id="svg_12" d="m256.49005,201.97362l50.13261,-50.13234l-50.13261,-50.1327l28.65333,-28.65023l78.79201,78.78293l-78.79201,78.80737" fill="#005fbf"/>
    <path stroke="null" id="svg_13" d="m256.49004,302.26661l50.13261,-50.13234l-50.13261,-50.1327l28.65333,-28.65023l78.79201,78.78293l-78.79201,78.80737" fill="#005fbf"/>
   </g>
   <g stroke="null" id="svg_21">
    <path stroke="null" id="svg_16" d="m46.06463,201.99999l57.58385,-57.58385l57.58385,57.58385l-57.58385,57.58385l-57.58385,-57.58385z" fill="#bf0000"/>
    <rect stroke="null" id="svg_20" height="41.87917" width="25.82549" y="181.0604" x="90.73575" fill="#ffffff"/>
   </g>
  </g>
 </g>
</svg>